<?xml version="1.0" standalone="no"?>
<!DOCTYPE svg PUBLIC "-//W3C//DTD SVG 20010904//EN"
 "http://www.w3.org/TR/2001/REC-SVG-20010904/DTD/svg10.dtd">
<svg version="1.0" xmlns="http://www.w3.org/2000/svg"
 width="512.000000pt" height="512.000000pt" viewBox="0 0 512.000000 512.000000"
 preserveAspectRatio="xMidYMid meet">
<metadata>
Created by potrace 1.14, written by Peter Selinger 2001-2017
</metadata>
<g transform="translate(0.000000,512.000000) scale(0.100000,-0.100000)"
fill="#000000" stroke="none">
<path d="M1292 3225 l3 -1657 710 1 c391 1 726 3 745 5 130 13 175 20 258 37
52 10 112 24 135 31 23 6 44 12 47 13 19 4 126 48 176 72 116 57 232 148 300
238 32 42 102 173 109 203 2 9 11 42 19 72 26 95 28 112 31 250 3 129 -8 236
-34 320 -6 19 -10 37 -9 40 6 15 -95 181 -140 231 -55 60 -162 137 -228 165
-22 9 -52 22 -69 29 -43 18 -172 53 -225 61 -67 10 -79 20 -34 29 139 26 327
131 397 222 12 16 24 30 28 33 4 3 23 34 43 70 39 72 69 159 82 235 11 65 11
298 1 355 -20 110 -95 274 -140 305 -12 8 -18 15 -13 15 29 0 -194 156 -239
167 -5 1 -44 14 -85 28 -41 14 -86 28 -100 30 -14 3 -36 7 -50 10 -22 5 -60
12 -194 31 -23 4 -375 9 -784 11 l-742 4 2 -1656z m1289 1061 c50 -6 82 -11
114 -20 6 -1 26 -6 45 -10 151 -35 233 -151 225 -320 -10 -210 -106 -294 -395
-343 -14 -2 -154 -5 -312 -7 -255 -2 -288 0 -289 13 -1 20 -1 661 0 681 1 14
36 15 279 14 152 -1 302 -4 333 -8z m84 -1300 c39 -4 79 -9 90 -11 11 -3 31
-7 45 -9 192 -36 280 -103 324 -250 15 -49 16 -232 1 -271 -36 -98 -95 -169
-171 -204 -46 -22 -149 -50 -203 -56 -182 -20 -779 -27 -784 -10 -2 9 -1 801
2 815 1 8 612 4 696 -4z"/>
<path d="M1299 879 c-5 -3 -8 -136 -7 -320 l3 -314 1268 -1 1267 0 0 318 c0
296 -1 318 -17 319 -118 4 -2507 2 -2514 -2z"/>
</g>
</svg>
